<svg width="40" height="40" viewBox="0 0 40 40" fill="none" xmlns="http://www.w3.org/2000/svg">
<rect width="40" height="40" rx="20" fill="#25D366"/>
<path d="M20 10C25.5228 10 30 14.4771 30 20C30 25.5228 25.5228 30 20 30C18.2364 30 16.5771 29.5427 15.1369 28.7397L14.8317 28.5624L11.7998 29.4542C11.0694 29.6691 10.3882 29.0329 10.5199 28.3093L10.5458 28.2002L11.4376 25.1683C10.5251 23.6594 10 21.8896 10 20C10 14.4771 14.4771 10 20 10ZM20 12C15.5817 12 12 15.5817 12 20C12 21.5769 12.4552 23.0444 13.241 24.2818C13.4394 24.5943 13.5237 24.9781 13.4565 25.3589L13.4183 25.5217L12.9767 27.0233L14.4783 26.5817C14.9107 26.4545 15.3611 26.5323 15.7182 26.759C16.9556 27.5448 18.4231 28 20 28C24.4183 28 28 24.4183 28 20C28 15.5817 24.4183 12 20 12ZM17.1016 15.1841C17.3175 15.0916 17.5789 15.1085 17.7856 15.2593C18.29 15.6272 18.6905 16.1208 19.0344 16.6034L19.3612 17.0775C19.4132 17.1542 19.4639 17.2293 19.5138 17.3023C19.6963 17.5692 19.6753 17.9239 19.4685 18.166L19.3927 18.2422L18.4693 18.928C18.3778 18.996 18.3473 19.1195 18.4022 19.2195C18.6112 19.5998 18.9834 20.1657 19.4093 20.5916C19.8357 21.018 20.4284 21.4143 20.8348 21.6467C20.9226 21.6969 21.0294 21.6811 21.101 21.6157L21.1394 21.5706L21.7402 20.6555C21.9705 20.349 22.4007 20.282 22.7134 20.4984L23.2563 20.8768C23.7957 21.2618 24.315 21.6757 24.7255 22.2014C24.8872 22.4085 24.9112 22.6792 24.8148 22.9042C24.4188 23.8283 23.4165 24.6153 22.374 24.5769L22.2155 24.5678L22.0235 24.5488C21.9889 24.5446 21.953 24.5399 21.9158 24.5346L21.6781 24.4952C20.7544 24.3208 19.2726 23.797 17.7383 22.2627C16.204 20.7284 15.6802 19.2466 15.5057 18.3229L15.4663 18.0852L15.4413 17.8774L15.4276 17.7019C15.4261 17.6755 15.4249 17.6505 15.424 17.627C15.3856 16.5829 16.1769 15.5804 17.1016 15.1841Z" fill="white"/>
</svg>
