<svg width="40" height="40" viewBox="0 0 40 40" fill="none" xmlns="http://www.w3.org/2000/svg">
<rect width="40" height="40" rx="20" fill="#E2241A"/>
<g clip-path="url(#clip0_2239_77451)">
<path d="M20 11.875C15.5117 11.875 11.875 15.5117 11.875 20V21.5625C11.875 22.082 11.457 22.5 10.9375 22.5C10.418 22.5 10 22.082 10 21.5625V20C10 14.4766 14.4766 10 20 10C25.5234 10 30 14.4766 30 20V25.6289C30 27.5273 28.4609 29.0664 26.5586 29.0664L22.25 29.0625C21.9258 29.6211 21.3203 30 20.625 30H19.375C18.3398 30 17.5 29.1602 17.5 28.125C17.5 27.0898 18.3398 26.25 19.375 26.25H20.625C21.3203 26.25 21.9258 26.6289 22.25 27.1875L26.5625 27.1914C27.4258 27.1914 28.125 26.4922 28.125 25.6289V20C28.125 15.5117 24.4883 11.875 20 11.875ZM15.625 18.125H16.25C16.9414 18.125 17.5 18.6836 17.5 19.375V23.75C17.5 24.4414 16.9414 25 16.25 25H15.625C14.2461 25 13.125 23.8789 13.125 22.5V20.625C13.125 19.2461 14.2461 18.125 15.625 18.125ZM24.375 18.125C25.7539 18.125 26.875 19.2461 26.875 20.625V22.5C26.875 23.8789 25.7539 25 24.375 25H23.75C23.0586 25 22.5 24.4414 22.5 23.75V19.375C22.5 18.6836 23.0586 18.125 23.75 18.125H24.375Z" fill="white"/>
</g>
<defs>
<clipPath id="clip0_2239_77451">
<rect width="20" height="20" fill="white" transform="translate(10 10)"/>
</clipPath>
</defs>
</svg>
