<svg width="55" height="56" viewBox="0 0 55 56" fill="none" xmlns="http://www.w3.org/2000/svg">
<path d="M32.4754 21.5225C31.9452 21.1114 31.3089 20.9111 30.556 20.9111C29.7394 20.9111 29.0289 21.143 28.4456 21.5963C27.8624 22.0601 27.5654 22.6926 27.5654 23.5042C27.5654 24.1999 27.8199 24.748 28.3184 25.1486C28.8274 25.5597 29.4531 25.76 30.206 25.76C31.0438 25.76 31.7649 25.5281 32.3694 25.0748C32.9632 24.611 33.2708 23.9891 33.2708 23.188C33.2602 22.4923 33.0057 21.9336 32.4754 21.5225Z" fill="#E2241A"/>
<path d="M30.567 30.4403C30.0155 30.0186 29.3368 29.8184 28.5309 29.8184C27.6507 29.8184 26.9084 30.0608 26.3145 30.5351C25.7206 31.02 25.4131 31.6736 25.4131 32.5063C25.4131 33.2336 25.6782 33.8134 26.1978 34.2456C26.7281 34.6778 27.3856 34.8886 28.1809 34.8886C29.0611 34.8886 29.8141 34.6461 30.4503 34.1718C31.076 33.6869 31.3942 33.0334 31.3942 32.2006C31.4048 31.4522 31.129 30.8619 30.567 30.4403Z" fill="#E2241A"/>
<path d="M49.0191 31.0411L47.7571 36.4908H43.6319L44.8939 31.0411H39.5385L40.4823 26.9301H45.8695L47.1315 21.4804H51.2567L49.9948 26.9301H54.8305C55.7213 18.7081 53.1019 10.7075 46.9406 5.45812C36.1874 -3.71254 18.7744 -1.05621 8.04238 11.3927C-2.68962 23.8416 -2.67902 41.3712 8.06359 50.5419C18.8168 59.7125 36.2298 57.0562 46.9724 44.6073C50.5356 40.4753 52.9005 35.7951 54.0988 31.0411H49.0191ZM10.6724 38.5041L14.1083 23.7362L8.59382 26.2449L9.82397 21.0166L17.2897 17.5065H20.5666L15.7096 38.5041H10.6724ZM36.6964 32.4852C36.6964 34.3615 35.8798 35.9215 34.2573 37.1443C32.6242 38.3671 30.5244 38.9784 27.9369 38.9784C25.5402 38.9784 23.6207 38.4303 22.1679 37.3446C20.715 36.2589 19.9939 34.8464 19.9939 33.1176C19.9939 31.7579 20.4393 30.5878 21.3301 29.597C22.2209 28.6061 23.4723 27.8999 25.063 27.4782C23.5253 26.5401 22.7618 25.1276 22.7618 23.2513C22.7618 21.4593 23.5253 19.973 25.063 18.803C26.6007 17.6329 28.5307 17.0427 30.8638 17.0427C33.0696 17.0427 34.8406 17.5802 36.1874 18.6554C37.5342 19.7306 38.1705 21.1115 38.1068 22.8086C38.0008 25.4017 36.5904 27.1515 33.8861 28.0791C35.7632 29.0277 36.6964 30.4929 36.6964 32.4852Z" fill="#E2241A"/>
</svg>
