<svg width="21" height="20" viewBox="0 0 21 20" fill="none" xmlns="http://www.w3.org/2000/svg">
<g clip-path="url(#clip0_3001_4006)">
<path d="M20.4931 9.98261C20.4931 10.6076 19.9722 11.0972 19.3819 11.0972H18.2708L18.2951 16.6597C18.2951 16.7534 18.2882 16.8472 18.2778 16.9409V17.5C18.2778 18.2673 17.6562 18.8889 16.8889 18.8889H16.3333C16.2951 18.8889 16.2569 18.8889 16.2188 18.8854C16.1701 18.8889 16.1215 18.8889 16.0729 18.8889H14.9444H14.1111C13.3438 18.8889 12.7222 18.2673 12.7222 17.5V16.6666V14.4444C12.7222 13.8298 12.2257 13.3333 11.6111 13.3333H9.38889C8.77431 13.3333 8.27778 13.8298 8.27778 14.4444V16.6666V17.5C8.27778 18.2673 7.65625 18.8889 6.88889 18.8889H6.05556H4.94792C4.89583 18.8889 4.84375 18.8854 4.79167 18.8819C4.75 18.8854 4.70833 18.8889 4.66667 18.8889H4.11111C3.34375 18.8889 2.72222 18.2673 2.72222 17.5V13.6111C2.72222 13.5798 2.72222 13.5451 2.72569 13.5139V11.0972H1.61111C0.986111 11.0972 0.5 10.6111 0.5 9.98261C0.5 9.67011 0.604167 9.39233 0.847222 9.14928L9.75 1.38886C9.99306 1.14581 10.2708 1.11108 10.5139 1.11108C10.7569 1.11108 11.0347 1.18053 11.2431 1.35414L20.1111 9.14928C20.3889 9.39233 20.5278 9.67011 20.4931 9.98261Z" fill="#9A9A9A"/>
</g>
<defs>
<clipPath id="clip0_3001_4006">
<rect width="20" height="20" fill="white" transform="translate(0.5)"/>
</clipPath>
</defs>
</svg>
