<svg width="21" height="20" viewBox="0 0 21 20" fill="none" xmlns="http://www.w3.org/2000/svg">
<path d="M3.54688 0.0859533C3.87891 -0.0663905 4.26953 -0.011703 4.54688 0.226578L6.125 1.57814L7.70312 0.226578C8.05469 -0.074203 8.57422 -0.074203 8.92188 0.226578L10.5 1.57814L12.0781 0.226578C12.4297 -0.074203 12.9492 -0.074203 13.2969 0.226578L14.875 1.57814L16.4531 0.226578C16.7305 -0.011703 17.1211 -0.0663905 17.4531 0.0859533C17.7852 0.238297 18 0.570328 18 0.937516V19.0625C18 19.4297 17.7852 19.7617 17.4531 19.9141C17.1211 20.0664 16.7305 20.0117 16.4531 19.7735L14.875 18.4219L13.2969 19.7735C12.9453 20.0742 12.4258 20.0742 12.0781 19.7735L10.5 18.4219L8.92188 19.7735C8.57031 20.0742 8.05078 20.0742 7.70312 19.7735L6.125 18.4219L4.54688 19.7735C4.26953 20.0117 3.87891 20.0664 3.54688 19.9141C3.21484 19.7617 3 19.4297 3 19.0625V0.937516C3 0.570328 3.21484 0.238297 3.54688 0.0859533ZM6.75 5.62502C6.40625 5.62502 6.125 5.90627 6.125 6.25002C6.125 6.59377 6.40625 6.87502 6.75 6.87502H14.25C14.5938 6.87502 14.875 6.59377 14.875 6.25002C14.875 5.90627 14.5938 5.62502 14.25 5.62502H6.75ZM6.125 13.75C6.125 14.0938 6.40625 14.375 6.75 14.375H14.25C14.5938 14.375 14.875 14.0938 14.875 13.75C14.875 13.4063 14.5938 13.125 14.25 13.125H6.75C6.40625 13.125 6.125 13.4063 6.125 13.75ZM6.75 9.37502C6.40625 9.37502 6.125 9.65627 6.125 10C6.125 10.3438 6.40625 10.625 6.75 10.625H14.25C14.5938 10.625 14.875 10.3438 14.875 10C14.875 9.65627 14.5938 9.37502 14.25 9.37502H6.75Z" fill="#9A9A9A"/>
</svg>
