<svg width="32" height="32" viewBox="0 0 32 32" fill="none" xmlns="http://www.w3.org/2000/svg">
<path fill-rule="evenodd" clip-rule="evenodd" d="M10.8113 10.0004L7.99546 22.0013H5.06865L7.06114 13.5635L3.86553 14.9962L4.57805 12.0054L8.90849 10.0004L10.8113 10.0004Z" fill="white"/>
<path fill-rule="evenodd" clip-rule="evenodd" d="M17.656 14.3369C17.3103 14.5958 16.892 14.7295 16.4055 14.7295C15.9659 14.7295 15.5989 14.6125 15.3087 14.3786C15.0142 14.1489 14.8691 13.8357 14.8691 13.4389C14.8691 12.9753 15.0398 12.6119 15.3813 12.3488C15.7227 12.0856 16.1281 11.952 16.6061 11.952C17.0457 11.952 17.417 12.0689 17.72 12.3028C18.0273 12.5367 18.1766 12.8541 18.1766 13.2593C18.1766 13.7145 18.0059 14.0737 17.656 14.3369ZM16.5506 19.5287C16.1836 19.8044 15.744 19.9422 15.2319 19.9422C14.771 19.9422 14.3869 19.8169 14.0839 19.5746C13.7766 19.3282 13.6272 18.9983 13.6272 18.5806C13.6272 18.1003 13.7979 17.7244 14.1479 17.4529C14.4936 17.1772 14.9246 17.0394 15.4367 17.0394C15.8977 17.0394 16.2903 17.1605 16.6146 17.3986C16.939 17.6367 17.1012 17.9708 17.1012 18.401C17.1012 18.8771 16.9176 19.253 16.5506 19.5287L16.5506 19.5287ZM18.5437 16.0368C20.1143 15.5105 20.9337 14.5081 20.9934 13.0296C21.0318 12.0606 20.6605 11.2712 19.8795 10.653C19.0985 10.039 18.07 9.73413 16.7897 9.73413C15.4368 9.73413 14.3144 10.0683 13.4224 10.7365C12.5347 11.4048 12.0909 12.2527 12.0909 13.2801C12.0909 14.3536 12.5347 15.1597 13.4224 15.6985C12.4963 15.9365 11.7751 16.3375 11.2587 16.9055C10.738 17.4736 10.4819 18.146 10.4819 18.9187C10.4819 19.9127 10.9002 20.7147 11.7409 21.337C12.5817 21.9593 13.6998 22.2684 15.0868 22.2684C16.5848 22.2684 17.8097 21.9218 18.7528 21.2201C19.7003 20.5226 20.1697 19.6371 20.1697 18.5595C20.1697 17.4276 19.6277 16.5839 18.5437 16.0368Z" fill="white"/>
<path fill-rule="evenodd" clip-rule="evenodd" d="M26.2258 12.2777L25.4918 15.3935H22.3678L21.8172 17.7366H24.9241L24.1944 20.8524H26.5886L27.3226 17.7366H30.1521C29.5035 20.1884 28.2487 22.6025 26.3837 24.7284C20.6522 31.2733 11.357 32.6683 5.62109 27.8484C-0.114748 23.0243 -0.123288 13.8105 5.60406 7.274C11.3356 0.729114 20.6308 -0.665904 26.3709 4.154C29.6443 6.90645 31.0484 11.0915 30.5875 15.3935H27.8903L28.62 12.2777H26.2258ZM27.2329 3.17243C20.9508 -2.10692 10.7978 -0.645076 4.60103 6.42608C-1.59575 13.5014 -1.52318 23.5505 4.75893 28.8299C7.30251 30.9684 10.4862 32 13.781 32C18.6206 32 23.7035 29.778 27.3866 25.5721C30.3654 22.1722 32.0043 17.9914 32 13.7938C31.9957 9.52518 30.3057 5.75362 27.2329 3.17242L27.2329 3.17243Z" fill="white"/>
</svg>
