<svg width="16" height="16" viewBox="0 0 16 16" fill="none" xmlns="http://www.w3.org/2000/svg">
<g clip-path="url(#clip0_2072_42581)">
<path d="M11.5 6.5C11.5 5.17392 10.9732 3.90215 10.0355 2.96447C9.09785 2.02678 7.82608 1.5 6.5 1.5C5.17392 1.5 3.90215 2.02678 2.96447 2.96447C2.02678 3.90215 1.5 5.17392 1.5 6.5C1.5 7.82608 2.02678 9.09785 2.96447 10.0355C3.90215 10.9732 5.17392 11.5 6.5 11.5C7.82608 11.5 9.09785 10.9732 10.0355 10.0355C10.9732 9.09785 11.5 7.82608 11.5 6.5ZM10.5344 11.5969C9.42813 12.475 8.025 13 6.5 13C2.90937 13 0 10.0906 0 6.5C0 2.90937 2.90937 0 6.5 0C10.0906 0 13 2.90937 13 6.5C13 8.025 12.475 9.42812 11.5969 10.5344L15.7812 14.7187C16.075 15.0125 16.075 15.4875 15.7812 15.7781C15.4875 16.0687 15.0125 16.0719 14.7219 15.7781L10.5344 11.5969Z" fill="#8591A3"/>
<path fill-rule="evenodd" clip-rule="evenodd" d="M5.07729 3.16479C5.07651 3.16507 5.07599 3.16529 5.0757 3.16542C5.07561 3.16545 5.07555 3.16548 5.0755 3.1655M9.94546 5.70763C10.0048 6.04997 9.71764 6.33366 9.3702 6.33366C9.02275 6.33366 8.74912 6.04734 8.6594 5.71168C8.59919 5.48647 8.50633 5.27012 8.38283 5.06979C8.1486 4.68983 7.8134 4.38244 7.41462 4.18192C7.01585 3.9814 6.5692 3.89564 6.12452 3.93421C5.89006 3.95454 5.66101 4.00902 5.44433 4.095C5.12138 4.22314 4.72836 4.17425 4.52116 3.89535C4.31396 3.61645 4.37044 3.21677 4.68063 3.06023C5.09576 2.85073 5.54873 2.72122 6.0158 2.68071C6.69279 2.62199 7.37277 2.75256 7.97987 3.05783C8.58696 3.36311 9.09728 3.83108 9.45387 4.40953C9.6999 4.80862 9.86607 5.24946 9.94546 5.70763Z" fill="#111318"/>
</g>
<defs>
<clipPath id="clip0_2072_42581">
<rect width="16" height="16" fill="white"/>
</clipPath>
</defs>
</svg>
