<svg width="153" height="54" viewBox="0 0 153 54" fill="none" xmlns="http://www.w3.org/2000/svg">
<g clip-path="url(#clip0_36_26440)">
<path d="M64.3271 12.7141L65.0222 8.3252H79.1692L78.4741 12.7141H73.8163L71.5048 27.507H66.6733L69.0022 12.7141H64.3271Z" fill="#E2241A"/>
<path d="M87.0594 27.8568C82.0193 27.8568 77.8308 24.5694 78.8736 17.9249C79.9163 11.2978 85.3214 7.95801 90.2746 7.95801C95.1409 7.95801 99.4684 11.2978 98.4256 17.9249C97.5045 23.7826 92.8294 27.8568 87.0594 27.8568ZM87.8415 23.1181C90.2051 23.1181 92.9163 21.3346 93.4551 17.9074C93.9938 14.4802 91.9083 12.6966 89.5447 12.6966C87.0594 12.6966 84.435 14.3928 83.8789 17.9074C83.3228 21.3346 85.3909 23.1181 87.8415 23.1181Z" fill="#E2241A"/>
<path d="M100.025 27.4721L103.049 8.30778C105.882 8.30778 108.628 8.27281 111.46 8.30778C116.032 8.30778 117.804 11.8924 117.161 15.5119C116.605 19.009 113.737 22.5237 109.219 22.5237H105.795L105.013 27.4721H100.025ZM109.896 18.1697C111.2 18.1697 112.19 16.7709 112.399 15.372C112.608 14.0081 112.121 12.6617 110.765 12.6617H107.255L106.386 18.1697H109.896Z" fill="#E2241A"/>
<path d="M121.193 25.1114L119.733 27.4895H114.519L114.624 26.8076L126.303 8.13281H128.597L134.315 26.8076L134.21 27.4895H129.066L128.319 25.1114H121.193ZM123.452 20.9324H127.398L126.146 16.2986L123.452 20.9324Z" fill="#E2241A"/>
<path d="M152.424 9.07708L142.587 23.0307H150.304L149.609 27.507H134.558L134.662 26.7901L144.569 12.6791H137.565L138.26 8.3252H152.546L152.424 9.07708Z" fill="#E2241A"/>
<path d="M70.097 40.6912H66.0997L65.4566 44.7653H62.1892L64.1705 32.1758H71.974L71.5221 35.0262H66.986L66.5515 37.8239H70.5488L70.097 40.6912Z" fill="white"/>
<path d="M74.2335 43.1916L73.2776 44.748H69.8538L69.9233 44.2936L77.5877 32.0359H79.0824L82.8364 44.2936L82.7668 44.748H79.3952L78.9086 43.1916H74.2335ZM75.7107 40.4467H78.3003L77.4661 37.404L75.7107 40.4467Z" fill="white"/>
<path d="M88.2066 38.261L87.1812 44.7653H83.9138L85.8951 32.1233H86.9205L92.4646 38.3307L93.4379 32.1757H96.7052L94.724 44.8004H93.7507L88.2066 38.261Z" fill="white"/>
<path d="M109.427 32.0535C111.999 32.0535 114.606 33.4523 114.554 36.8093H111.408C111.165 35.5157 110.296 35.0084 108.958 35.0084C107.063 35.0084 105.621 36.3722 105.291 38.4532C105.013 40.2719 105.969 41.8629 107.88 41.8629C109.236 41.8629 110.418 41.2336 110.957 39.8693H114.102C113.059 43.4539 110.07 44.8705 107.394 44.8705C104.196 44.8705 101.328 42.7199 102.006 38.4705C102.701 34.1519 106.229 32.0535 109.427 32.0535Z" fill="white"/>
<path d="M118.986 41.8105H123.505L123.053 44.7653H115.25L117.23 32.1758H120.498L118.986 41.8105Z" fill="white"/>
<path d="M125.121 40.6038L126.442 32.1758H129.709L128.388 40.5342C128.232 41.5833 129.066 42.0204 129.987 42.0204C130.856 42.0204 131.864 41.5655 132.021 40.5342L133.341 32.1758H136.574L135.253 40.6038C134.802 43.4193 132.143 44.9229 129.518 44.9229C126.894 44.9229 124.686 43.4366 125.121 40.6038Z" fill="white"/>
<path d="M146.689 38.1559C147.627 38.6804 147.992 39.695 147.818 40.8489C147.471 42.9995 145.82 44.6784 143.248 44.6784H137.234L139.215 32.106H144.742C147.071 32.106 148.444 33.6272 148.079 35.9701C147.94 36.757 147.384 37.6664 146.689 38.1559ZM141.266 39.7474L140.936 41.8279H143.456C144.082 41.8279 144.447 41.3562 144.568 40.8489C144.638 40.4641 144.551 40.0793 144.273 39.8521C144.117 39.7824 143.978 39.7296 143.752 39.7296H141.266V39.7474ZM142.031 34.9739L141.701 37.0722H143.717C144.342 37.0722 144.742 36.5821 144.829 36.0754C144.934 35.5157 144.708 34.9561 144.047 34.9561H142.031V34.9739Z" fill="white"/>
<path d="M59.16 24.0624C58.7078 23.8001 58.152 23.9575 57.8913 24.4121L56.2923 27.2098C56.2923 27.0874 56.2923 26.9825 56.2923 26.8601C56.2923 12.1371 44.3873 0.159424 29.7536 0.159424C20.212 0.159424 11.5398 5.26525 6.82965 13.3961C6.79529 13.4486 6.76044 13.5185 6.72558 13.571C6.56896 13.8682 6.48206 14.2005 6.48206 14.5502C6.48206 15.2846 6.84733 15.9141 7.3859 16.3162C7.54252 16.4211 7.69863 16.5086 7.87242 16.5785C8.09876 16.6659 8.35946 16.7184 8.62016 16.7184C9.31534 16.7184 9.92363 16.3862 10.3056 15.8791C10.4102 15.7042 10.497 15.5294 10.6011 15.3545C14.5813 8.64 21.7761 4.44342 29.7187 4.44342C41.989 4.44342 51.9823 14.4977 51.9823 26.8426C51.9823 27.2973 51.9646 27.7344 51.9474 28.189L49.775 24.3946C49.6012 24.0974 49.2884 23.9225 48.9752 23.9225C48.8191 23.9225 48.6625 23.9575 48.5064 24.0449C48.0542 24.3072 47.9152 24.8667 48.1588 25.3214L53.0074 33.767C53.1812 34.0643 53.4767 34.2393 53.8071 34.2393C54.137 34.2393 54.4498 34.0643 54.6064 33.767L59.4555 25.3214C59.7506 24.9017 59.5944 24.3247 59.16 24.0624ZM54.1891 25.5662C53.9809 25.5662 53.8243 25.4088 53.8071 25.2165C53.3378 12.5393 42.8752 2.62491 29.9794 2.62491C21.7418 2.62491 14.0078 6.73405 9.80186 13.3786C9.69728 13.536 9.61039 13.6934 9.48914 13.8857C9.38456 14.0606 9.15872 14.113 8.98493 14.0081C8.81113 13.9032 8.75909 13.6759 8.86317 13.501C8.98493 13.2912 9.089 13.1338 9.19358 12.9765C11.3312 9.6192 14.3726 6.804 17.9703 4.88057C21.6023 2.92217 25.7562 1.908 29.9794 1.908C36.4098 1.908 42.4755 4.32102 47.0811 8.70994C51.6519 13.0814 54.2937 18.9391 54.5367 25.199C54.5544 25.3913 54.3977 25.5662 54.1891 25.5662Z" fill="#E2241A"/>
<path d="M52.9209 37.6662C52.7643 37.5615 52.6077 37.4741 52.4339 37.4039C52.2081 37.3165 51.9474 37.2641 51.6867 37.2641C50.9915 37.2641 50.3832 37.5966 50.0008 38.1034C49.8967 38.2782 49.8098 38.4531 49.7057 38.6279C45.7256 45.3426 38.5302 49.5392 30.5881 49.5392C18.3178 49.5392 8.32455 39.4849 8.32455 27.1399C8.32455 26.6852 8.34223 26.2481 8.35941 25.7935L10.5319 29.5879C10.7057 29.8851 11.0184 30.06 11.3311 30.06C11.4877 30.06 11.6444 30.025 11.8005 29.9376C12.2526 29.6753 12.3916 29.1158 12.1481 28.6611L7.28178 20.2155C7.12566 19.9183 6.81242 19.7434 6.48251 19.7434C6.1521 19.7434 5.83936 19.9183 5.68275 20.2155L0.834137 28.6611C0.573443 29.1158 0.729556 29.6753 1.16405 29.9376C1.61622 30.1999 2.17247 30.0425 2.43317 29.5879L4.03169 26.7902C4.03169 26.8951 4.03169 27.0175 4.03169 27.1399C4.03169 41.8628 15.9367 53.8405 30.5705 53.8405C40.1121 53.8405 48.7842 48.7346 53.4944 40.6037C53.5292 40.5514 53.5636 40.4817 53.5984 40.4289C53.7551 40.132 53.842 39.7996 53.842 39.4499C53.8243 38.6981 53.4767 38.0683 52.9209 37.6662ZM51.6175 40.5341C51.4957 40.744 51.3911 40.9011 51.287 41.0586C49.1495 44.416 46.108 47.231 42.5104 49.1544C38.8778 51.0951 34.7244 52.127 30.5012 52.127C24.0708 52.127 18.0051 49.7141 13.3995 45.3249C8.82876 40.9534 6.18696 35.0957 5.94344 28.836C5.94344 28.6436 6.10006 28.4688 6.29104 28.4513C6.48252 28.4513 6.65631 28.6087 6.67348 28.801C7.14283 41.478 17.6055 51.3925 30.5012 51.3925C38.7389 51.3925 46.4728 47.2661 50.6788 40.6388C50.7828 40.4817 50.8697 40.3241 50.9915 40.132C51.0961 39.9571 51.3219 39.9043 51.4957 40.0095C51.6518 40.1493 51.7215 40.3765 51.6175 40.5341Z" fill="#E2241A"/>
<path d="M42.0411 15.0748C38.8779 11.8924 34.6719 10.1438 30.1881 10.1438C25.7042 10.1438 21.4983 11.8924 18.3351 15.0748C15.1719 18.2572 13.4339 22.4887 13.4339 27C13.4339 29.3606 13.9033 31.6337 14.842 33.767C15.7453 35.8303 17.0316 37.6663 18.6655 39.2227C18.6655 39.2227 19.8472 40.2892 20.4727 40.7263C23.3231 42.7722 26.6773 43.8565 30.1881 43.8565C34.6719 43.8565 38.8779 42.1079 42.0411 38.9254C45.2038 35.7429 46.9417 31.5113 46.9417 27C46.9417 22.4887 45.2038 18.2572 42.0411 15.0748ZM40.0247 28.8185L36.9313 28.5912C36.9313 28.5912 34.7239 21.8068 34.6891 21.7368L36.5837 19.1664C36.6185 19.1664 43.918 19.2189 43.918 19.2189C44.7349 20.6527 45.3255 22.2264 45.6559 23.9051C45.6559 23.8701 40.0768 28.7136 40.0247 28.8185ZM30.1881 11.123C31.3001 11.123 32.3777 11.2454 33.4205 11.4552C33.4205 11.4552 35.6798 18.5544 35.7319 18.6419L33.8898 21.1423C33.8201 21.1248 31.9952 21.1248 31.9952 21.1248H30.6397C30.6397 21.1248 26.5904 21.1248 26.5207 21.1423L24.5917 18.5195C24.6266 18.467 26.8339 11.4902 26.8339 11.4902C27.911 11.2454 29.0407 11.123 30.1881 11.123ZM16.4582 19.1839C16.4582 19.1839 23.7228 19.1315 23.8097 19.114L25.7042 21.7019C25.6517 21.7718 23.4272 28.6437 23.4272 28.6437L20.3858 28.9409C20.3166 28.836 20.2468 28.7486 20.1428 28.6612L14.7025 23.9575C15.033 22.2439 15.6412 20.6527 16.4582 19.1839ZM21.0461 39.9395C21.0461 39.9395 19.9513 39.1526 19.343 38.5233C18.7347 37.9459 18.1961 37.3339 17.6919 36.6873L20.4727 29.9901C20.4904 29.9726 20.4904 29.9551 20.4904 29.9201L23.549 29.6229C23.6187 29.7453 29.6318 34.1692 29.7016 34.1865V36.9669C29.6318 37.002 23.5838 41.4085 23.5838 41.4085C22.6972 41.0059 21.8459 40.5164 21.0461 39.9395ZM36.7923 41.4085C36.7923 41.4085 30.7443 37.002 30.6746 36.9669V34.1865C30.7443 34.1519 36.7746 29.7103 36.8615 29.5529L39.8858 29.7803C39.903 29.8152 42.7186 36.6172 42.7186 36.6172C41.1721 38.6804 39.1386 40.3242 36.7923 41.4085Z" fill="white"/>
</g>
<defs>
<clipPath id="clip0_36_26440">
<rect width="153" height="54" fill="white"/>
</clipPath>
</defs>
</svg>
