<svg width="21" height="20" viewBox="0 0 21 20" fill="none" xmlns="http://www.w3.org/2000/svg">
<g clip-path="url(#clip0_3001_2240)">
<path d="M4.25694 3.57639C4.73611 3.9618 4.8125 4.65972 4.43056 5.13889C3.36111 6.47222 2.72222 8.15972 2.72222 10C2.72222 11.8403 3.36111 13.5278 4.42708 14.8611C4.8125 15.3403 4.73264 16.0382 4.25347 16.4236C3.77431 16.809 3.07639 16.7292 2.69097 16.25C1.32292 14.5382 0.5 12.3646 0.5 10C0.5 7.63541 1.32292 5.4618 2.69444 3.75C3.07986 3.27083 3.77778 3.19444 4.25694 3.57639ZM16.7465 3.57639C17.2257 3.19097 17.9236 3.27083 18.309 3.75C19.6771 5.4618 20.5 7.63541 20.5 10C20.5 12.3646 19.6771 14.5382 18.3056 16.25C17.9201 16.7292 17.2222 16.8056 16.7431 16.4236C16.2639 16.0417 16.1875 15.3403 16.5694 14.8611C17.6354 13.5278 18.2743 11.8403 18.2743 10C18.2743 8.15972 17.6354 6.47222 16.5694 5.13889C16.184 4.65972 16.2639 3.9618 16.7431 3.57639H16.7465ZM8.55556 10C8.55556 9.4843 8.76042 8.98972 9.12507 8.62507C9.48973 8.26041 9.9843 8.05555 10.5 8.05555C11.0157 8.05555 11.5103 8.26041 11.8749 8.62507C12.2396 8.98972 12.4444 9.4843 12.4444 10C12.4444 10.5157 12.2396 11.0103 11.8749 11.3749C11.5103 11.7396 11.0157 11.9444 10.5 11.9444C9.9843 11.9444 9.48973 11.7396 9.12507 11.3749C8.76042 11.0103 8.55556 10.5157 8.55556 10ZM7.60069 7.40625C6.98264 8.09375 6.61111 9.00347 6.61111 10C6.61111 10.9965 6.98611 11.9028 7.60069 12.5937C8.01042 13.0521 7.97222 13.7535 7.51389 14.1632C7.05556 14.5729 6.35417 14.5347 5.94444 14.0764C4.97917 12.9931 4.38889 11.566 4.38889 10C4.38889 8.43402 4.97917 7.00694 5.94444 5.92708C6.35417 5.46875 7.05556 5.43055 7.51389 5.84027C7.97222 6.25 8.01042 6.95139 7.60069 7.40972V7.40625ZM15.0556 5.92361C16.0208 7.00694 16.6111 8.43402 16.6111 10C16.6111 11.566 16.0208 12.9931 15.0556 14.0729C14.6458 14.5312 13.9444 14.5694 13.4861 14.1597C13.0278 13.75 12.9896 13.0486 13.3993 12.5903C14.0174 11.9028 14.3889 10.9931 14.3889 9.99652C14.3889 9 14.0139 8.09375 13.3993 7.40277C12.9896 6.94444 13.0278 6.24305 13.4861 5.83333C13.9444 5.42361 14.6458 5.4618 15.0556 5.92014V5.92361Z" fill="#9A9A9A"/>
</g>
<defs>
<clipPath id="clip0_3001_2240">
<rect width="20" height="20" fill="white" transform="translate(0.5)"/>
</clipPath>
</defs>
</svg>
