<svg width="21" height="20" viewBox="0 0 21 20" fill="none" xmlns="http://www.w3.org/2000/svg">
<path d="M1.75 3.75C1.75 3.05859 2.30859 2.5 3 2.5H18C18.6914 2.5 19.25 3.05859 19.25 3.75C19.25 4.44141 18.6914 5 18 5H3C2.30859 5 1.75 4.44141 1.75 3.75ZM1.75 10C1.75 9.30859 2.30859 8.75 3 8.75H18C18.6914 8.75 19.25 9.30859 19.25 10C19.25 10.6914 18.6914 11.25 18 11.25H3C2.30859 11.25 1.75 10.6914 1.75 10ZM19.25 16.25C19.25 16.9414 18.6914 17.5 18 17.5H3C2.30859 17.5 1.75 16.9414 1.75 16.25C1.75 15.5586 2.30859 15 3 15H18C18.6914 15 19.25 15.5586 19.25 16.25Z" fill="#9A9A9A"/>
</svg>
