<svg width="20" height="20" viewBox="0 0 20 20" fill="none" xmlns="http://www.w3.org/2000/svg">
<path d="M18 17H10.5V13.4656C12.1969 13.2219 13.5 11.7656 13.5 10C13.5 8.23438 12.1969 6.77813 10.5 6.53438V3H18C19.1031 3 20 3.89688 20 5V6H18C16.8969 6 16 6.89687 16 8V12C16 13.1031 16.8969 14 18 14H20V15C20 16.1031 19.1031 17 18 17ZM9.5 6.53438C7.80312 6.77813 6.5 8.23438 6.5 10C6.5 11.7656 7.80312 13.2219 9.5 13.4656V17H2C0.896875 17 0 16.1031 0 15V14H2C3.10313 14 4 13.1031 4 12V8C4 6.89687 3.10313 6 2 6H0V5C0 3.89688 0.896875 3 2 3H9.5V6.53438ZM9.5 12.45C8.35938 12.2188 7.5 11.2094 7.5 10C7.5 8.79063 8.35938 7.78125 9.5 7.55V12.45ZM10.5 12.45V7.55C11.6406 7.78125 12.5 8.79063 12.5 10C12.5 11.2094 11.6406 12.2188 10.5 12.45ZM18 7H20V13H18C17.4469 13 17 12.5531 17 12V8C17 7.44688 17.4469 7 18 7ZM2 13H0V7H2C2.55312 7 3 7.44688 3 8V12C3 12.5531 2.55312 13 2 13Z" fill="#9A9A9A"/>
</svg>
