<svg width="390" height="294" viewBox="0 0 390 294" fill="none" xmlns="http://www.w3.org/2000/svg">
<g clip-path="url(#clip0_3022_42655)">
<rect width="390" height="294" fill="#22262F"/>
<path d="M355.893 287.594C355.893 289.471 355.774 291.318 355.535 293.128C355.467 293.674 355.384 294.21 355.29 294.745H271.389C271.238 293.871 271.113 292.987 271.02 292.098C270.895 290.886 270.816 289.664 270.796 288.425C270.79 288.15 270.785 287.874 270.785 287.593C270.785 273.956 277.197 261.822 287.17 254.036C288.377 253.089 289.64 252.209 290.946 251.399C291.882 250.816 292.843 250.27 293.832 249.76C299.676 246.738 306.312 245.032 313.342 245.032C314.532 245.032 315.713 245.079 316.878 245.178C325.026 245.849 332.525 248.814 338.723 253.432C342.721 256.407 346.18 260.074 348.92 264.251C350.709 266.96 352.191 269.883 353.319 272.983V272.988C354.983 277.545 355.893 282.465 355.893 287.594Z" fill="#353A46"/>
<path d="M297.072 271.787C297.072 280.457 294.087 288.436 289.09 294.745H231.068C228.156 291.068 225.926 286.829 224.579 282.21C223.778 279.49 223.285 276.634 223.134 273.69C223.134 273.69 223.134 273.69 223.134 273.685C223.103 273.056 223.087 272.421 223.087 271.787C223.087 270.919 223.118 270.055 223.181 269.202C223.227 268.432 223.305 267.673 223.404 266.918C223.664 264.942 224.08 263.018 224.642 261.156C225.869 257.036 227.803 253.219 230.294 249.843C230.305 249.833 230.31 249.822 230.315 249.812C237.054 240.695 247.876 234.786 260.08 234.786C266.184 234.786 271.941 236.263 277.016 238.884C282.668 241.798 287.468 246.124 290.946 251.399C291.56 252.314 292.122 253.256 292.642 254.223C294.982 258.546 296.479 263.382 296.926 268.521C297.025 269.597 297.072 270.684 297.072 271.787Z" fill="#353A46"/>
<path d="M243.347 281.123C252.201 278.035 256.876 268.353 253.789 259.497C250.702 250.641 241.022 245.965 232.168 249.053C223.314 252.14 218.639 261.822 221.726 270.678C224.813 279.534 234.493 284.21 243.347 281.123Z" fill="#353A46"/>
<path d="M225.499 267.161C230.659 267.161 234.841 262.977 234.841 257.817C234.841 252.657 230.659 248.473 225.499 248.473C220.34 248.473 216.158 252.657 216.158 257.817C216.158 262.977 220.34 267.161 225.499 267.161Z" fill="#353A46"/>
<path d="M325.745 267.626C325.745 271.651 325.021 275.511 323.691 279.074C323.685 279.095 323.68 279.115 323.67 279.136C321.283 285.518 316.962 290.964 311.424 294.745H274.4C273.215 293.939 272.086 293.049 271.02 292.097C268.009 289.403 265.498 286.158 263.647 282.517C261.363 278.049 260.08 272.989 260.08 267.626V267.47C260.137 255.164 266.959 244.46 277.016 238.884C281.727 236.273 287.145 234.786 292.912 234.786C293.099 234.786 293.286 234.786 293.473 234.792C302.703 234.948 311.007 238.911 316.878 245.178C321.121 249.714 324.096 255.45 325.235 261.827C325.567 263.71 325.745 265.65 325.745 267.626Z" fill="#353A46"/>
<path d="M331.391 279.842C352.643 279.842 369.871 262.61 369.871 241.354C369.871 220.097 352.643 202.866 331.391 202.866C310.14 202.866 292.912 220.097 292.912 241.354C292.912 262.61 310.14 279.842 331.391 279.842Z" fill="#353A46"/>
<path d="M390 235.104V294.745H344.131C340.45 290.397 337.72 285.227 336.254 279.542C336.238 279.486 336.222 279.433 336.212 279.376C335.442 276.344 335.031 273.161 335.031 269.89C335.031 268.277 335.13 266.686 335.322 265.125C335.832 260.985 337.002 257.053 338.723 253.434C344.225 241.804 355.384 233.378 368.649 231.704C370.24 231.506 371.863 231.402 373.511 231.402C379.413 231.401 385.003 232.727 390 235.104Z" fill="#353A46"/>
<path d="M119.212 287.594C119.212 290.033 119.009 292.42 118.609 294.745H100.784C100.763 294.828 100.748 294.917 100.731 295C100.664 294.917 100.596 294.834 100.529 294.745H57.5406C57.5042 294.808 57.4626 294.87 57.421 294.927C57.3898 294.871 57.3586 294.808 57.3326 294.745H34.7076C34.4892 293.481 34.328 292.191 34.2292 290.891C34.146 289.804 34.1044 288.701 34.1044 287.594C34.1044 279.615 36.304 272.146 40.1259 265.759C43.9791 259.32 49.4859 253.989 56.0586 250.348C56.6618 250.011 57.2702 249.693 57.8942 249.386C62.6781 247.03 67.9717 245.548 73.5674 245.147C74.5918 245.07 75.6208 245.033 76.6608 245.033C78.7356 245.033 80.7688 245.184 82.7656 245.47H82.7708C88.2515 246.255 93.4 248.091 97.9963 250.765C106.119 255.482 112.535 262.805 116.098 271.596C116.145 271.694 116.181 271.793 116.217 271.891C118.151 276.749 119.212 282.049 119.212 287.594Z" fill="#353A46"/>
<path d="M64.2589 271.787C64.2589 273.118 64.1965 274.44 64.077 275.74C64.0712 275.745 64.0712 275.745 64.077 275.745C63.728 279.548 62.8752 283.199 61.5914 286.642C61.2534 287.563 60.879 288.467 60.4734 289.357C59.6258 291.23 58.643 293.029 57.5406 294.745C57.5042 294.807 57.4626 294.87 57.421 294.927C57.3898 294.87 57.3586 294.807 57.3326 294.745H0.00305176V235.171C4.64142 232.415 9.84709 230.516 15.4053 229.689C17.4593 229.383 19.5601 229.227 21.7025 229.227C36.1007 229.227 48.8307 236.378 56.5313 247.326C57.0045 247.997 57.4569 248.684 57.8937 249.386C59.1053 251.342 60.1661 253.406 61.0553 255.56C63.1202 260.563 64.2589 266.04 64.2589 271.787Z" fill="#353A46"/>
<path d="M167.707 270.992C167.707 271.137 167.707 271.282 167.702 271.428C167.702 271.652 167.697 271.881 167.691 272.105C167.613 274.783 167.255 277.394 166.646 279.906C165.331 285.362 162.829 290.355 159.428 294.599C159.392 294.652 159.351 294.698 159.308 294.745H100.783C100.762 294.828 100.747 294.917 100.73 295C100.663 294.917 100.595 294.833 100.528 294.745C98.4268 292.155 96.6641 289.273 95.3069 286.179C93.2633 281.534 92.1297 276.395 92.1297 270.992C92.1297 263.548 94.283 256.61 97.9953 250.764C99.6488 248.153 101.614 245.766 103.845 243.639C107.34 240.305 111.468 237.637 116.034 235.832C120.335 234.131 125.015 233.2 129.918 233.2C142.819 233.2 154.217 239.67 161.029 249.542C161.44 250.135 161.83 250.738 162.205 251.352C163.64 253.697 164.82 256.215 165.715 258.857C166.588 261.431 167.192 264.126 167.488 266.913C167.634 268.251 167.707 269.613 167.707 270.992Z" fill="#353A46"/>
<path d="M168.98 267.8C170.468 258.539 164.168 249.827 154.91 248.339C145.652 246.852 136.941 253.153 135.454 262.413C133.967 271.673 140.266 280.386 149.524 281.873C158.782 283.361 167.493 277.06 168.98 267.8Z" fill="#353A46"/>
<path d="M165.364 267.161C170.523 267.161 174.706 262.977 174.706 257.817C174.706 252.657 170.523 248.473 165.364 248.473C160.205 248.473 156.022 252.657 156.022 257.817C156.022 262.977 160.205 267.161 165.364 267.161Z" fill="#353A46"/>
<path d="M121.514 254.005C121.514 272.14 106.815 286.843 88.6832 286.843C70.5514 286.843 55.8522 272.14 55.8522 254.005C55.8522 235.869 70.5514 221.166 88.6832 221.166C106.815 221.166 121.514 235.869 121.514 254.005Z" fill="#353A46"/>
<path d="M257.931 294.745H130.033L157.161 267.611L156.99 266.399C156.99 266.399 157.785 265.848 159.132 264.776C160.713 263.512 163.043 261.531 165.715 258.857C166.23 258.342 166.755 257.807 167.29 257.245C168.892 255.565 170.582 253.661 172.283 251.539C180.447 241.361 188.876 226.204 189.084 206.846H198.881C199.105 227.447 208.631 243.29 217.252 253.437C218.911 255.398 220.538 257.146 222.057 258.669C222.967 259.579 223.83 260.407 224.641 261.155C227.194 263.517 229.217 265.103 230.242 265.862C230.715 266.221 230.975 266.398 230.975 266.398L230.803 267.61L240.163 276.972L244.057 280.867L251.712 288.523L257.931 294.745Z" fill="#353A46"/>
<path d="M45.2365 292.493C66.4883 292.493 83.7162 275.261 83.7162 254.005C83.7162 232.748 66.4883 215.517 45.2365 215.517C23.9848 215.517 6.75684 232.748 6.75684 254.005C6.75684 275.261 23.9848 292.493 45.2365 292.493Z" fill="#353A46"/>
<path d="M127.376 278.111C127.376 284.093 125.956 289.746 123.44 294.744H100.784C100.763 294.828 100.748 294.916 100.731 294.999C100.664 294.916 100.596 294.833 100.529 294.744H57.5406C57.5042 294.807 57.4626 294.869 57.421 294.927C57.3898 294.87 57.3586 294.807 57.3326 294.744C56.7242 293.548 56.1834 292.316 55.7159 291.046C54.2126 287.021 53.391 282.662 53.391 278.111C53.391 276.879 53.4534 275.656 53.5735 274.455C53.9895 270.154 55.1486 266.066 56.9171 262.326C58.0564 259.913 59.4495 257.645 61.0563 255.56C64.3895 251.227 68.6586 247.654 73.5679 245.147C76.1622 243.82 78.9337 242.791 81.8405 242.104C84.5809 241.454 87.4409 241.111 90.3846 241.111C95.1321 241.111 99.6769 242.005 103.847 243.638C111.029 246.446 117.118 251.429 121.299 257.785C123.139 260.578 124.611 263.631 125.641 266.887C126.768 270.424 127.376 274.2 127.376 278.111Z" fill="#111318"/>
<path d="M275.586 294.744H212.141C215.214 289.632 219.488 285.32 224.579 282.21C226.071 281.289 227.637 280.478 229.259 279.781C229.54 279.661 229.82 279.541 230.107 279.432C233.263 278.163 236.643 277.32 240.164 276.972C241.381 276.847 242.618 276.785 243.866 276.785C245.831 276.785 247.766 276.941 249.648 277.237C251.104 277.461 252.529 277.773 253.917 278.168C257.396 279.146 260.667 280.623 263.647 282.517C266.273 284.181 268.675 286.168 270.797 288.424C272.611 290.349 274.218 292.466 275.586 294.744Z" fill="#111318"/>
<path d="M233.414 294.744H158.93V294.598C158.956 288.476 160.454 282.706 163.092 277.622V277.616C163.255 277.307 163.416 277.004 163.589 276.7C164.647 274.779 165.882 272.961 167.259 271.27C167.427 271.061 167.599 270.851 167.777 270.647C174.609 262.599 184.796 257.494 196.172 257.494C205.627 257.494 214.259 261.018 220.823 266.83C221.619 267.526 222.383 268.26 223.111 269.029C225.975 272.03 228.346 275.506 230.084 279.329C230.241 279.669 230.393 280.015 230.539 280.366V280.371C232.393 284.796 233.414 289.649 233.414 294.744Z" fill="#111318"/>
<path d="M99.8896 294.744C100.832 290.037 102.669 285.654 105.213 281.775C107.867 277.706 111.307 274.187 115.306 271.439C115.485 271.313 115.667 271.187 115.851 271.072C118.631 269.223 121.677 267.742 124.913 266.7C127.98 265.705 131.221 265.097 134.582 264.935C135.184 264.909 135.786 264.893 136.393 264.893C142.963 264.893 149.135 266.595 154.491 269.585C157.889 271.47 160.956 273.879 163.59 276.701C163.663 276.78 163.736 276.858 163.81 276.937C164.652 277.853 165.448 278.806 166.197 279.806C169.458 284.147 171.788 289.226 172.898 294.745H99.8896V294.744Z" fill="#111318"/>
<path d="M325.615 291.005C325.615 292.269 325.552 293.512 325.427 294.744H251.817C251.692 293.512 251.63 292.268 251.63 291.005C251.63 290.172 251.656 289.345 251.713 288.524C251.952 284.904 252.711 281.429 253.917 278.168C255.368 274.247 257.463 270.637 260.08 267.47C266.574 259.595 276.267 254.452 287.171 254.036C287.655 254.015 288.139 254.004 288.622 254.004C289.979 254.004 291.321 254.077 292.642 254.222C293.52 254.316 294.388 254.441 295.252 254.597C301.352 255.699 306.937 258.3 311.601 262.008C317.102 266.377 321.335 272.275 323.644 279.063C323.654 279.089 323.665 279.11 323.67 279.136C324.933 282.86 325.615 286.854 325.615 291.005Z" fill="#111318"/>
<path d="M282.08 294.744C283.094 284.004 288.705 274.6 296.926 268.52C298.377 267.444 299.911 266.476 301.518 265.618C304.638 263.954 308.028 262.721 311.601 262.009C313.962 261.536 316.406 261.286 318.901 261.286C321.059 261.286 323.176 261.473 325.235 261.827C328.802 262.44 332.187 263.564 335.323 265.124C337.912 266.409 340.331 267.99 342.53 269.821C344.698 271.615 346.654 273.659 348.359 275.906C352.103 280.826 354.64 286.709 355.535 293.126C355.613 293.662 355.676 294.203 355.722 294.744H282.08V294.744Z" fill="#111318"/>
<path d="M390 263.699V294.744H332.878C332.878 289.33 334.037 284.191 336.128 279.557C336.154 279.494 336.186 279.432 336.212 279.375C337.818 275.859 339.961 272.639 342.529 269.82C344.437 267.729 346.58 265.857 348.92 264.25C353.907 260.812 359.777 258.57 366.126 257.931C367.359 257.806 368.607 257.744 369.87 257.744C377.296 257.743 384.207 259.933 390 263.699Z" fill="#111318"/>
<path d="M63.8222 294.744H57.5406C57.5042 294.807 57.4626 294.869 57.421 294.926C57.3898 294.87 57.3586 294.807 57.3326 294.744H0.00305176V275.453C2.70703 272.504 5.87901 269.997 9.40458 268.057C14.6987 265.123 20.7878 263.459 27.267 263.459C31.7852 263.459 36.122 264.271 40.1265 265.758C45.238 267.652 49.8192 270.647 53.5736 274.455C57.0003 277.913 59.7459 282.048 61.5919 286.641C61.841 287.26 62.0755 287.884 62.2887 288.518C62.9751 290.521 63.4894 292.601 63.8222 294.744Z" fill="#111318"/>
<path d="M223.908 163.692V182.297H216.108V186.843C216.108 188.985 214.423 190.738 212.312 190.847C212.245 190.853 212.172 190.853 212.104 190.853H176.032C173.822 190.853 172.029 189.053 172.029 186.843V182.297H164.229V163.692C164.229 159.318 166.355 153.04 169.023 149.441C169.1 149.342 169.174 149.244 169.252 149.145L172.029 145.603L178.892 136.839L181.498 133.515L181.986 132.891L184.035 130.28C184.035 130.275 184.04 130.275 184.04 130.275L189.048 123.883C190.317 122.26 191.949 121.381 193.613 121.251C193.738 121.241 193.857 121.236 193.982 121.236V121.23C194.128 121.23 194.268 121.23 194.408 121.241C194.419 121.241 194.429 121.241 194.439 121.246C196.129 121.355 197.799 122.234 199.088 123.883L201.526 126.993L204.1 130.275L206.154 132.897L206.638 133.515L209.243 136.839L216.107 145.603L216.138 145.644L218.883 149.145C218.972 149.254 219.055 149.368 219.143 149.483C221.802 153.092 223.908 159.334 223.908 163.692Z" fill="#F0938E"/>
<path d="M237.043 182.297H206.94L206.893 181.99L206.503 179.446L206.165 177.236L205.781 174.698L205.443 172.487L205.053 169.943L204.715 167.733H224.351C226.566 167.733 229.54 169.086 230.991 170.755L238.416 179.275C239.872 180.944 239.253 182.297 237.043 182.297Z" fill="#F0938E"/>
<path d="M229.825 177.095L227.278 174.173C226.814 173.642 225.263 172.935 224.558 172.935H210.978L211.614 177.095H229.825Z" fill="#E2241A"/>
<path d="M219.145 149.441V182.297H216.14V145.603L218.917 149.145C218.994 149.244 219.067 149.343 219.145 149.441Z" fill="#E2241A"/>
<path d="M183.245 167.733L181.02 182.297H150.922C148.707 182.297 148.094 180.944 149.544 179.275L156.97 170.755C158.426 169.086 161.396 167.733 163.61 167.733H183.245V167.733Z" fill="#F0938E"/>
<path d="M158.343 177.095L160.89 174.173C161.354 173.642 162.905 172.935 163.61 172.935H177.19L176.554 177.095H158.343Z" fill="#E2241A"/>
<path d="M212.286 190.348L212.286 190.348L212.274 190.349C212.229 190.352 212.176 190.353 212.104 190.353H176.032C174.099 190.353 172.529 188.778 172.529 186.843V119.369C172.529 117.779 172.927 115.804 173.587 113.894C174.246 111.984 175.15 110.183 176.13 108.931L180.684 103.118L180.685 103.117L180.897 102.847L180.898 102.846L183.04 100.112L183.041 100.11L183.253 99.8411L183.254 99.84L190.752 90.2701C190.752 90.2701 190.752 90.27 190.752 90.2699C191.675 89.0937 192.845 88.5234 193.992 88.5007C195.19 88.478 196.425 89.0472 197.385 90.2703L204.884 99.84L204.884 99.8411L205.097 100.11L205.098 100.112L207.239 102.846L207.24 102.847L207.452 103.117L207.453 103.118L212.007 108.931C212.987 110.183 213.891 111.984 214.55 113.894C215.209 115.804 215.608 117.779 215.608 119.369V186.843C215.608 188.718 214.133 190.253 212.286 190.348Z" fill="white" stroke="#E2E4E9"/>
<path d="M194.069 144.093C187.031 144.093 181.304 138.365 181.304 131.325C181.304 124.285 187.031 118.557 194.069 118.557C201.108 118.557 206.834 124.285 206.834 131.325C206.834 138.365 201.108 144.093 194.069 144.093Z" fill="#E2241A"/>
<path d="M206.868 190.847H181.378V194.456H206.868V190.847Z" fill="#E2241A"/>
<path d="M210.454 206.108C210.377 207.727 210.11 209.16 209.846 210.232C209.812 210.114 209.774 209.995 209.733 209.877C209.31 208.654 208.418 207.184 206.602 207.184C203.948 207.184 201.873 208.428 200.258 210.243C198.651 212.047 197.48 214.435 196.6 216.796C195.719 219.162 195.117 221.538 194.668 223.335C194.653 223.394 194.638 223.453 194.624 223.512C194.418 224.337 194.248 225.02 194.096 225.52C194.08 225.573 194.065 225.622 194.05 225.669C194.018 225.585 193.985 225.491 193.949 225.389C193.766 224.858 193.553 224.144 193.298 223.293L193.258 223.159C192.717 221.35 192.006 218.99 191.055 216.651C190.105 214.317 188.904 211.97 187.366 210.199C185.824 208.423 183.905 207.184 181.538 207.184C180.567 207.184 179.827 207.53 179.285 208.064C178.755 208.585 178.438 209.261 178.246 209.895C178.239 209.918 178.232 209.94 178.225 209.963C177.983 208.926 177.752 207.596 177.681 206.108C177.517 202.656 178.216 198.404 181.58 194.957H206.555C209.92 198.404 210.618 202.656 210.454 206.108Z" fill="white" stroke="#E2E4E9"/>
<path d="M201.174 194.457C199.437 200.413 194.695 202.587 194.102 202.841V202.867C194.102 202.867 194.087 202.862 194.071 202.852C194.05 202.863 194.035 202.867 194.035 202.867V202.841C194.019 202.836 194.003 202.826 193.982 202.815C193.213 202.477 188.658 200.267 186.962 194.457H201.174Z" fill="#F0938E"/>
<path d="M205.277 99.5316H182.86L190.358 89.9616C191.362 88.6821 192.667 88.0268 193.983 88.0007C195.356 87.9747 196.734 88.6301 197.779 89.9616L205.277 99.5316Z" fill="#F0938E"/>
<path d="M216.109 162.983H172.029V165.193H216.109V162.983Z" fill="#EDEFF2"/>
<path d="M216.109 167.735H172.029V169.945H216.109V167.735Z" fill="#EDEFF2"/>
<path d="M216.109 172.486H172.029V174.696H216.109V172.486Z" fill="#EDEFF2"/>
<path d="M216.109 177.237H172.029V179.447H216.109V177.237Z" fill="#EDEFF2"/>
<path d="M216.108 181.99H172.028V184.2H216.108V181.99Z" fill="#EDEFF2"/>
<path d="M200.764 162.897H187.374V190.851H200.764V162.897Z" fill="#EDEFF2"/>
<path d="M195.564 167.735H192.574V182.299H195.564V167.735Z" fill="#EDEFF2"/>
<path d="M172.028 145.603V182.297H169.022V149.441C169.1 149.343 169.173 149.244 169.251 149.145L172.028 145.603Z" fill="#E2241A"/>
<path d="M207.632 102.537H180.504L182.646 99.8017L182.86 99.5312H205.277L205.49 99.8017L207.632 102.537Z" fill="#E2241A"/>
<path d="M195.564 141.411H192.574V190.853H195.564V141.411Z" fill="#E2241A"/>
<path d="M204.154 131.326C204.154 136.896 199.641 141.411 194.067 141.411C189.855 141.411 186.251 138.831 184.738 135.164C184.254 133.984 183.984 132.689 183.984 131.326C183.984 125.756 188.498 121.236 194.067 121.236C196.652 121.236 199.013 122.208 200.796 123.81C202.86 125.657 204.154 128.341 204.154 131.326Z" fill="#C4070C"/>
<path opacity="0.4" d="M201.55 127.638C201.55 133.214 197.031 137.729 191.462 137.729C188.883 137.729 186.522 136.761 184.738 135.164C184.254 133.984 183.984 132.689 183.984 131.326C183.984 125.756 188.498 121.236 194.067 121.236C196.652 121.236 199.013 122.208 200.796 123.81C201.284 124.991 201.55 126.286 201.55 127.638Z" fill="white"/>
<path d="M194.122 142.678H198.239L196.18 146.244L194.122 149.81L192.064 146.244L190.005 142.678H194.122Z" fill="#E2241A"/>
<path d="M169.022 175.166V182.297L166.963 178.734L164.904 175.166H169.022Z" fill="#E2241A"/>
<path d="M219.145 175.166V182.297L221.205 178.734L223.263 175.166H219.145Z" fill="#E2241A"/>
</g>
<defs>
<clipPath id="clip0_3022_42655">
<rect width="390" height="294" fill="white"/>
</clipPath>
</defs>
</svg>
