<svg width="230" height="81" viewBox="0 0 230 81" fill="none" xmlns="http://www.w3.org/2000/svg">
<path d="M96.7007 19.0712L97.7458 12.4878H119.013L117.967 19.0712H110.966L107.491 41.2605H100.228L103.729 19.0712H96.7007Z" fill="white"/>
<path d="M130.874 41.7851C123.297 41.7851 117.001 36.8542 118.568 26.8873C120.136 16.9467 128.261 11.937 135.707 11.937C143.022 11.937 149.528 16.9467 147.96 26.8873C146.575 35.6739 139.547 41.7851 130.874 41.7851ZM132.049 34.6772C135.602 34.6772 139.678 32.0019 140.488 26.8611C141.298 21.7203 138.163 19.045 134.61 19.045C130.874 19.045 126.928 21.5891 126.092 26.8611C125.256 32.0019 128.365 34.6772 132.049 34.6772Z" fill="white"/>
<path d="M150.364 41.2081L154.91 12.4615C159.169 12.4615 163.296 12.4091 167.555 12.4615C174.427 12.4615 177.091 17.8384 176.125 23.2677C175.289 28.5134 170.978 33.7854 164.185 33.7854H159.038L157.862 41.2081H150.364ZM165.203 27.2545C167.163 27.2545 168.652 25.1562 168.966 23.0579C169.28 21.0121 168.548 18.9925 166.51 18.9925H161.233L159.927 27.2545H165.203Z" fill="white"/>
<path d="M182.185 37.6672L179.991 41.2342H172.153L172.31 40.2113L189.867 12.1992H193.316L201.911 40.2113L201.754 41.2342H194.02L192.897 37.6672H182.185ZM185.582 31.3985H191.513L189.631 24.448L185.582 31.3985Z" fill="white"/>
<path d="M229.135 13.6156L214.347 34.546H225.947L224.902 41.2605H202.277L202.434 40.1852L217.326 19.0187H206.797L207.842 12.4878H229.318L229.135 13.6156Z" fill="white"/>
<path d="M105.374 61.0368H99.3655L98.3988 67.1479H93.4871L96.4654 48.2637H108.196L107.517 52.5392H100.698L100.045 56.7358H106.054L105.374 61.0368Z" fill="white"/>
<path d="M111.593 64.7872L110.156 67.1219H105.009L105.113 66.4402L116.635 48.0537H118.882L124.525 66.4402L124.421 67.1219H119.352L118.621 64.7872H111.593ZM113.814 60.67H117.706L116.452 56.1059L113.814 60.67Z" fill="white"/>
<path d="M132.598 57.3914L131.057 67.1478H126.145L129.123 48.1848H130.665L138.999 57.4959L140.462 48.2635H145.374L142.395 67.2004H140.932L132.598 57.3914Z" fill="white"/>
<path d="M164.499 48.0801C168.365 48.0801 172.284 50.1784 172.206 55.2139H167.477C167.111 53.2734 165.805 52.5125 163.793 52.5125C160.945 52.5125 158.777 54.5581 158.281 57.6797C157.862 60.4077 159.299 62.7942 162.173 62.7942C164.211 62.7942 165.988 61.8503 166.798 59.8039H171.526C169.959 65.1807 165.465 67.3057 161.442 67.3057C156.634 67.3057 152.324 64.0797 153.343 57.7056C154.388 51.2277 159.691 48.0801 164.499 48.0801Z" fill="white"/>
<path d="M178.868 62.7158H185.661L184.981 67.1479H173.251L176.229 48.2637H181.141L178.868 62.7158Z" fill="white"/>
<path d="M188.09 60.9057L190.076 48.2637H194.988L193.002 60.8012C192.767 62.3749 194.021 63.0307 195.406 63.0307C196.712 63.0307 198.227 62.3483 198.463 60.8012L200.448 48.2637H205.308L203.322 60.9057C202.643 65.1289 198.646 67.3843 194.7 67.3843C190.755 67.3843 187.437 65.1549 188.09 60.9057Z" fill="white"/>
<path d="M220.512 57.2338C221.923 58.0206 222.472 59.5425 222.211 61.2733C221.688 64.4993 219.206 67.0177 215.34 67.0177H206.3L209.278 48.1589H217.586C221.087 48.1589 223.151 50.4408 222.602 53.9552C222.394 55.1355 221.557 56.4995 220.512 57.2338ZM212.361 59.6211L211.865 62.7418H215.653C216.593 62.7418 217.143 62.0342 217.325 61.2733C217.43 60.6961 217.299 60.1189 216.881 59.7781C216.646 59.6737 216.437 59.5944 216.098 59.5944H212.361V59.6211ZM213.511 52.4608L213.014 55.6082H216.045C216.985 55.6082 217.586 54.8732 217.717 54.113C217.874 53.2736 217.534 52.4341 216.541 52.4341H213.511V52.4608Z" fill="white"/>
<path d="M88.9333 36.0937C88.2535 35.7003 87.4181 35.9363 87.0262 36.6183L84.6224 40.8149C84.6224 40.6313 84.6224 40.4739 84.6224 40.2903C84.6224 18.2058 66.726 0.239258 44.7276 0.239258C30.384 0.239258 17.3474 7.898 10.2668 20.0943C10.2151 20.173 10.1627 20.2779 10.1103 20.3566C9.8749 20.8025 9.74426 21.3008 9.74426 21.8254C9.74426 22.927 10.2934 23.8712 11.103 24.4745C11.3384 24.6318 11.5731 24.763 11.8344 24.8679C12.1746 24.999 12.5665 25.0777 12.9584 25.0777C14.0034 25.0777 14.9179 24.5794 15.492 23.8187C15.6492 23.5565 15.7799 23.2942 15.9363 23.0319C21.9195 12.9601 32.7353 6.66526 44.6752 6.66526C63.1207 6.66526 78.1433 21.7467 78.1433 40.2641C78.1433 40.946 78.1167 41.6017 78.0909 42.2837L74.8251 36.5921C74.5639 36.1462 74.0937 35.8839 73.6228 35.8839C73.3882 35.8839 73.1527 35.9363 72.918 36.0675C72.2383 36.4609 72.0295 37.3002 72.3955 37.9822L79.6843 50.6507C79.9456 51.0965 80.3898 51.359 80.8865 51.359C81.3825 51.359 81.8526 51.0965 82.088 50.6507L89.3776 37.9822C89.8211 37.3527 89.5864 36.4871 88.9333 36.0937ZM81.4607 38.3494C81.1478 38.3494 80.9124 38.1133 80.8865 37.8248C80.181 18.8091 64.4529 3.93749 45.0671 3.93749C32.6837 3.93749 21.0575 10.1012 14.7348 20.0681C14.5776 20.3041 14.447 20.5402 14.2647 20.8287C14.1075 21.091 13.768 21.1697 13.5067 21.0123C13.2455 20.8549 13.1673 20.5139 13.3237 20.2517C13.5068 19.9369 13.6632 19.7009 13.8204 19.4648C17.0338 14.4289 21.6059 10.2061 27.0141 7.32097C32.4741 4.38337 38.7185 2.86212 45.0671 2.86212C54.7337 2.86212 63.8521 6.48166 70.7756 13.065C77.6466 19.6222 81.6179 28.4087 81.9832 37.7986C82.0098 38.0871 81.7744 38.3494 81.4607 38.3494Z" fill="white"/>
<path d="M79.5543 56.4997C79.3189 56.3426 79.0835 56.2115 78.8222 56.1063C78.4827 55.9751 78.0908 55.8966 77.6989 55.8966C76.6539 55.8966 75.7395 56.3952 75.1645 57.1554C75.0081 57.4177 74.8775 57.68 74.721 57.9423C68.7378 68.0143 57.9212 74.3092 45.9822 74.3092C27.5366 74.3092 12.514 59.2278 12.514 40.7102C12.514 40.0282 12.5406 39.3725 12.5664 38.6906L15.8322 44.3822C16.0935 44.8281 16.5636 45.0903 17.0337 45.0903C17.2691 45.0903 17.5046 45.0379 17.7393 44.9067C18.419 44.5133 18.6279 43.674 18.2618 42.9921L10.9465 30.3237C10.7118 29.8778 10.2409 29.6155 9.74495 29.6155C9.24825 29.6155 8.77812 29.8778 8.54268 30.3237L1.25392 42.9921C0.862031 43.674 1.09671 44.5133 1.74987 44.9067C2.4296 45.3002 3.2658 45.0641 3.65769 44.3822L6.0607 40.1856C6.0607 40.343 6.0607 40.5266 6.0607 40.7102C6.0607 62.7946 23.9572 80.7611 45.9556 80.7611C60.2992 80.7611 73.3357 73.1022 80.4164 60.9059C80.4688 60.8274 80.5204 60.7229 80.5728 60.6437C80.8083 60.1984 80.9389 59.6997 80.9389 59.1752C80.9123 58.0475 80.3898 57.1028 79.5543 56.4997ZM77.5949 60.8015C77.4119 61.1164 77.2546 61.352 77.0982 61.5883C73.8848 66.6244 69.3127 70.8469 63.9044 73.732C58.4438 76.6431 52.2 78.1909 45.8515 78.1909C36.1848 78.1909 27.0665 74.5715 20.143 67.9877C13.272 61.4305 9.30065 52.6439 8.93458 43.2543C8.93458 42.9658 9.17002 42.7035 9.45711 42.6773C9.74495 42.6773 10.0062 42.9134 10.032 43.2019C10.7376 62.2174 26.4657 77.0891 45.8515 77.0891C58.2349 77.0891 69.8611 70.8995 76.1838 60.9586C76.3402 60.723 76.4708 60.4866 76.6539 60.1984C76.8111 59.9361 77.1506 59.8568 77.4119 60.0146C77.6465 60.2243 77.7513 60.5651 77.5949 60.8015Z" fill="white"/>
<path d="M63.199 22.6123C58.4438 17.8387 52.1211 15.2158 45.3807 15.2158C38.6403 15.2158 32.3176 17.8387 27.5625 22.6123C22.8074 27.3859 20.1948 33.7332 20.1948 40.5002C20.1948 44.041 20.9003 47.4507 22.3114 50.6506C23.6694 53.7456 25.603 56.4996 28.0592 58.8342C28.0592 58.8342 29.8356 60.4339 30.7759 61.0896C35.0609 64.1585 40.1031 65.7848 45.3807 65.7848C52.1211 65.7848 58.4438 63.1619 63.199 58.3882C67.9533 53.6144 70.5659 47.2671 70.5659 40.5002C70.5659 33.7332 67.9533 27.3859 63.199 22.6123ZM60.1679 43.2279L55.5176 42.887C55.5176 42.887 52.1994 32.7103 52.147 32.6054L54.995 28.7498C55.0474 28.7498 66.0204 28.8284 66.0204 28.8284C67.2485 30.9792 68.1364 33.3398 68.6331 35.8577C68.6331 35.8052 60.2461 43.0706 60.1679 43.2279ZM45.3807 16.6846C47.0523 16.6846 48.6723 16.8682 50.2399 17.183C50.2399 17.183 53.6363 27.8318 53.7146 27.9629L50.9455 31.7136C50.8406 31.6874 48.0974 31.6874 48.0974 31.6874H46.0597C46.0597 31.6874 39.9724 31.6874 39.8676 31.7136L36.9679 27.7793C37.0203 27.7006 40.3385 17.2354 40.3385 17.2354C41.9578 16.8682 43.6559 16.6846 45.3807 16.6846ZM24.741 28.776C24.741 28.776 35.6616 28.6973 35.7923 28.6711L38.6403 32.5529C38.5613 32.6578 35.2173 42.9656 35.2173 42.9656L30.6452 43.4115C30.5412 43.2542 30.4364 43.123 30.2799 42.9919L22.1018 35.9364C22.5985 33.366 23.5129 30.9792 24.741 28.776ZM31.6379 59.9093C31.6379 59.9093 29.9921 58.729 29.0777 57.7851C28.1633 56.9189 27.3536 56.0009 26.5957 55.0311L30.7759 44.9852C30.8025 44.959 30.8025 44.9328 30.8025 44.8803L35.4004 44.4345C35.5052 44.618 44.5445 51.2539 44.6494 51.2798V55.4504C44.5445 55.5031 35.4528 62.1128 35.4528 62.1128C34.1199 61.5089 32.8402 60.7747 31.6379 59.9093ZM55.3087 62.1128C55.3087 62.1128 46.2169 55.5031 46.1121 55.4504V51.2798C46.2169 51.228 55.2821 44.5656 55.4127 44.3295L59.959 44.6705C59.9848 44.723 64.2174 54.9259 64.2174 54.9259C61.8926 58.0207 58.8357 60.4865 55.3087 62.1128Z" fill="white"/>
</svg>
