<svg width="36" height="36" viewBox="0 0 36 36" fill="none" xmlns="http://www.w3.org/2000/svg">
<g clip-path="url(#clip0_2239_77446)">
<path d="M18 3.375C21.8788 3.375 25.5987 4.91584 28.3414 7.65856C31.0842 10.4013 32.625 14.1212 32.625 18C32.625 21.8788 31.0842 25.5987 28.3414 28.3414C25.5987 31.0842 21.8788 32.625 18 32.625C14.1212 32.625 10.4013 31.0842 7.65856 28.3414C4.91584 25.5987 3.375 21.8788 3.375 18C3.375 14.1212 4.91584 10.4013 7.65856 7.65856C10.4013 4.91584 14.1212 3.375 18 3.375ZM18 36C22.7739 36 27.3523 34.1036 30.7279 30.7279C34.1036 27.3523 36 22.7739 36 18C36 13.2261 34.1036 8.64773 30.7279 5.27208C27.3523 1.89642 22.7739 0 18 0C13.2261 0 8.64773 1.89642 5.27208 5.27208C1.89642 8.64773 0 13.2261 0 18C0 22.7739 1.89642 27.3523 5.27208 30.7279C8.64773 34.1036 13.2261 36 18 36ZM18 9C17.0648 9 16.3125 9.75234 16.3125 10.6875V18.5625C16.3125 19.4977 17.0648 20.25 18 20.25C18.9352 20.25 19.6875 19.4977 19.6875 18.5625V10.6875C19.6875 9.75234 18.9352 9 18 9ZM20.25 24.75C20.25 24.1533 20.0129 23.581 19.591 23.159C19.169 22.7371 18.5967 22.5 18 22.5C17.4033 22.5 16.831 22.7371 16.409 23.159C15.9871 23.581 15.75 24.1533 15.75 24.75C15.75 25.3467 15.9871 25.919 16.409 26.341C16.831 26.7629 17.4033 27 18 27C18.5967 27 19.169 26.7629 19.591 26.341C20.0129 25.919 20.25 25.3467 20.25 24.75Z" fill="#E2241A"/>
</g>
<defs>
<clipPath id="clip0_2239_77446">
<rect width="36" height="36" fill="white"/>
</clipPath>
</defs>
</svg>
